<?xml version="1.0" encoding="utf-8"?>
<!-- Generator: Adobe Illustrator 26.5.0, SVG Export Plug-In . SVG Version: 6.00 Build 0)  -->
<svg version="1.1" xmlns="http://www.w3.org/2000/svg" xmlns:xlink="http://www.w3.org/1999/xlink" x="0px" y="0px"
	 width="595.28px" height="841.89px" viewBox="0 0 595.28 841.89" style="enable-background:new 0 0 595.28 841.89;"
	 xml:space="preserve">
<style type="text/css">
	.st0{fill:none;stroke:#0000FF;stroke-width:2.834646e-03;stroke-linecap:round;stroke-linejoin:round;stroke-miterlimit:10;}
	.st1{fill:none;stroke:#0000FF;stroke-width:2.834646e-03;stroke-miterlimit:10;}
	.st2{fill:none;stroke:#FF0000;stroke-width:2.834646e-03;stroke-linecap:round;stroke-linejoin:round;stroke-miterlimit:10;}
</style>
<g id="カット2_x28_R0G0B255_x29_">
	<path class="st0" d="M259.99,30.19h299.5c3.13,0,5.67,2.54,5.67,5.67v104.82h8.5c3.13,0,5.67-2.54,5.67-5.67V21.69
		c0-3.13-2.54-5.67-5.67-5.67H259.99V30.19z"/>
	<path class="st0" d="M237.31,52.87h299.5c3.13,0,5.67,2.54,5.67,5.67v104.82h8.5c3.13,0,5.67-2.54,5.67-5.67V44.37
		c0-3.13-2.54-5.67-5.67-5.67H237.31V52.87z"/>
	<path class="st0" d="M480.1,70.16l-313.67,0c-3.13,0-5.67,2.54-5.67,5.67l0,57.89c0,3.13,2.54,5.67,5.67,5.67h8.5l0-49.38
		c0-3.13,2.54-5.67,5.67-5.67l299.5,0V70.16z"/>
	<path class="st0" d="M204.86,742.13h52.6c3.13,0,5.67-2.54,5.67-5.67V109.12c0-3.13-2.54-5.67-5.67-5.67h-57.89
		c-3.13,0-5.67,2.54-5.67,5.67v108.63h-53.29V109.12c0-3.13-2.54-5.67-5.67-5.67H21.62c-3.13,0-5.67,2.54-5.67,5.67v627.34
		c0,3.13,2.54,5.67,5.67,5.67h149.8c3.13,0,5.67-2.54,5.67-5.67v-53.05h22.11v53.05C199.19,739.6,201.73,742.13,204.86,742.13z"/>
	<path id="PCB外形線_x2B_11mm_00000089551597012891815760000006757847038830427027_" class="st0" d="M283.21,109.12v627.34
		c0,3.13,2.54,5.67,5.67,5.67h235.84c3.13,0,5.67-2.54,5.67-5.67V109.12c0-3.13-2.54-5.67-5.67-5.67H288.88
		C285.75,103.45,283.21,105.99,283.21,109.12z"/>
	<path class="st1" d="M76.39,582.46v8.5h8.5h14.17h8.5v-8.5l0-296.66h41.26h8.5v-8.5v-8.5c0-7.82-6.36-14.17-14.17-14.17h-52.6
		c-7.82,0-14.17,6.36-14.17,14.17L76.39,582.46L76.39,582.46z"/>
	<path class="st1" d="M222.53,319.81v-8.5h-8.5h-14.17h-8.5v8.5l0,296.66h-41.26h-8.5v8.5v8.5c0,7.82,6.36,14.17,14.17,14.17h52.6
		c7.82,0,14.17-6.36,14.17-14.17L222.53,319.81L222.53,319.81z"/>
	<path class="st0" d="M351.2,758.51l-313.67,0c-3.13,0-5.67,2.54-5.67,5.67l0,57.89c0,3.13,2.54,5.67,5.67,5.67h8.5l0-49.38
		c0-3.13,2.54-5.67,5.67-5.67l299.5,0V758.51z"/>
	<path class="st0" d="M237.31,805.04l313.67,0c3.13,0,5.67-2.54,5.67-5.67l0-149.8c0-3.13-2.54-5.67-5.67-5.67h-8.5l0,141.29
		c0,3.13-2.54,5.67-5.67,5.67l-299.5,0V805.04z"/>
	<path class="st0" d="M259.99,827.72l313.67,0c3.13,0,5.67-2.54,5.67-5.67l0-149.8c0-3.13-2.54-5.67-5.67-5.67h-8.5l0,141.29
		c0,3.13-2.54,5.67-5.67,5.67l-299.5,0V827.72z"/>
	<path class="st0" d="M199.85,319.81l0,299.5c0,3.13-2.54,5.67-5.67,5.67h-44.09v8.5c0,3.13,2.54,5.67,5.67,5.67h52.6
		c3.13,0,5.67-2.54,5.67-5.67l0-313.67H199.85z"/>
	<path class="st0" d="M99.07,582.46l0-299.5c0-3.13,2.54-5.67,5.67-5.67l44.09,0v-8.5c0-3.13-2.54-5.67-5.67-5.67l-52.6,0
		c-3.13,0-5.67,2.54-5.67,5.67l0,313.67H99.07z"/>
</g>
<g id="カット1_x28_R255G0B0_x29_">
	<g id="トッププレート_00000032614159438476427370000015142809179117615765_">
		<g id="ネジ穴_00000123408652033020947550000017380708808607339952_">
			<circle class="st2" cx="290.3" cy="451.14" r="2.83"/>
			<circle class="st2" cx="523.31" cy="110.54" r="2.83"/>
			<circle class="st2" cx="523.31" cy="735.05" r="2.83"/>
			<circle class="st2" cx="290.3" cy="735.05" r="2.83"/>
			<circle class="st2" cx="468.25" cy="110.54" r="2.83"/>
			<circle class="st2" cx="400.79" cy="110.54" r="2.83"/>
			<circle class="st2" cx="473.54" cy="735.05" r="2.83"/>
			<circle class="st2" cx="437.26" cy="735.05" r="2.83"/>
			<circle class="st2" cx="290.3" cy="394.45" r="2.83"/>
			<circle class="st2" cx="290.3" cy="110.54" r="2.83"/>
			<circle class="st2" cx="523.31" cy="451.14" r="2.83"/>
			<circle class="st2" cx="523.31" cy="394.45" r="2.83"/>
		</g>
		<g id="キースイッチ穴_00000053510574839518657860000001768737048196691601_">
			<path class="st2" d="M467.96,233.39V193.7h39.69v39.69H467.96z"/>
			<path class="st2" d="M467.96,287.39V247.7h39.69v39.69H467.96z"/>
			<path class="st2" d="M467.96,341.39V301.7h39.69v39.69H467.96z"/>
			<path class="st2" d="M467.96,395.39V355.7h39.69v39.69H467.96z"/>
			<path class="st2" d="M467.96,449.39V409.7h39.69v39.69H467.96z"/>
			<path class="st2" d="M467.96,503.39V463.7h39.69v39.69H467.96z"/>
			<path class="st2" d="M467.96,557.39V517.7h39.69v39.69H467.96z"/>
			<path class="st2" d="M467.96,611.39V571.7h39.69v39.69H467.96z"/>
			<path class="st2" d="M467.96,665.39V625.7h39.69v39.69H467.96z"/>
			<path class="st2" d="M467.96,719.39V679.7h39.69v39.69H467.96z"/>
			<path class="st2" d="M413.96,260.39V220.7h39.69v39.69H413.96z"/>
			<path class="st2" d="M413.96,314.39V274.7h39.69v39.69H413.96z"/>
			<path class="st2" d="M413.96,368.39V328.7h39.69v39.69H413.96z"/>
			<path class="st2" d="M413.96,422.39V382.7h39.69v39.69H413.96z"/>
			<path class="st2" d="M413.96,476.39V436.7h39.69v39.69H413.96z"/>
			<path class="st2" d="M413.96,530.39V490.7h39.69v39.69H413.96z"/>
			<path class="st2" d="M413.96,584.39V544.7h39.69v39.68H413.96z"/>
			<path class="st2" d="M413.96,638.39V598.7h39.69v39.68H413.96z"/>
			<path class="st2" d="M359.96,273.89V234.2h39.69v39.69H359.96z"/>
			<path class="st2" d="M359.96,327.89V288.2h39.69v39.69H359.96z"/>
			<path class="st2" d="M359.96,381.89V342.2h39.69v39.69H359.96z"/>
			<path class="st2" d="M359.96,435.89V396.2h39.69v39.69H359.96z"/>
			<path class="st2" d="M359.96,489.89V450.2h39.69v39.69H359.96z"/>
			<path class="st2" d="M359.96,543.89V504.2h39.69v39.69H359.96z"/>
			<path class="st2" d="M359.96,597.89V558.2h39.69v39.68H359.96z"/>
			<path class="st2" d="M359.96,651.89V612.2h39.69v39.69H359.96z"/>
			<path class="st2" d="M359.96,153.2v39.69"/>
			<path class="st2" d="M413.96,186.14v-39.69h39.69v39.69H413.96z"/>
			<path class="st2" d="M467.96,172.63v-39.69h39.69v39.69H467.96z"/>
			<path class="st2" d="M305.96,172.63v-39.69h39.69v39.69H305.96z"/>
			<path class="st2" d="M305.96,240.13v-39.69h39.69v39.69H305.96z"/>
			<path class="st2" d="M305.96,645.13v-39.68h39.69v39.68H305.96z"/>
			<path class="st2" d="M305.96,712.63v-39.69h39.69v39.69H305.96z"/>
			<path class="st2" d="M359.96,153.34v39.41"/>
			<path class="st2" d="M387.1,712.63v5.42h-25.04h0v-53.78h89.49v53.78h-25.04v-5.42h0.14h-39.69"/>
			<path class="st2" d="M300.54,270.15v25.04h5.42v255.2h-5.42v25.04h53.78V270.15L300.54,270.15"/>
			<polyline class="st2" points="359.96,192.75 359.96,153.34 354.54,153.34 359.96,153.34 354.54,153.34 354.54,128.29 
				354.54,128.3 408.32,128.3 408.32,217.79 354.54,217.79 354.54,192.75 359.96,192.75 354.54,192.75 			"/>
		</g>
	</g>
	<g id="ボトムプレート_00000030474915386961733120000011227478098491242116_">
		<g id="ネジ穴_00000114031199964367238670000001342194824318965161_">
			<circle class="st2" cx="23.03" cy="451.14" r="2.83"/>
			<circle class="st2" cx="256.04" cy="110.54" r="2.83"/>
			<circle class="st2" cx="256.04" cy="735.05" r="2.83"/>
			<circle class="st2" cx="23.03" cy="735.05" r="2.83"/>
			<circle class="st2" cx="200.99" cy="110.54" r="2.83"/>
			<circle class="st2" cx="133.53" cy="110.54" r="2.83"/>
			<circle class="st2" cx="206.28" cy="735.05" r="2.83"/>
			<circle class="st2" cx="170" cy="735.05" r="2.83"/>
			<circle class="st2" cx="23.03" cy="394.45" r="2.83"/>
			<circle class="st2" cx="23.03" cy="110.54" r="2.83"/>
			<circle class="st2" cx="256.04" cy="451.14" r="2.83"/>
			<circle class="st2" cx="256.04" cy="394.45" r="2.83"/>
		</g>
		
			<rect id="リセットスイッチ穴_00000106844671305690274810000006537711702727229089_" x="112.65" y="209.63" transform="matrix(-1.836970e-16 1 -1 -1.836970e-16 343.5409 104.0654)" class="st2" width="14.17" height="28.35"/>
		<g id="LED穴_00000101084369595316466090000017962869185648166529_">
			
				<rect x="78.03" y="113.34" transform="matrix(-1.836970e-16 1 -1 -1.836970e-16 214.0458 32.4708)" class="st2" width="25.51" height="19.84"/>
			
				<rect x="28.16" y="166.07" transform="matrix(-1.836970e-16 1 -1 -1.836970e-16 218.3292 142.159)" class="st2" width="19.84" height="28.35"/>
			
				<rect x="28.17" y="248.87" transform="matrix(-1.836970e-16 1 -1 -1.836970e-16 301.1296 224.9567)" class="st2" width="19.84" height="28.35"/>
			
				<rect x="28.17" y="301.75" transform="matrix(-1.836970e-16 1 -1 -1.836970e-16 354.0042 277.8314)" class="st2" width="19.84" height="28.35"/>
			
				<rect x="28.17" y="354.62" transform="matrix(-1.836970e-16 1 -1 -1.836970e-16 406.8788 330.706)" class="st2" width="19.84" height="28.35"/>
			
				<rect x="28.17" y="462.62" transform="matrix(-1.836970e-16 1 -1 -1.836970e-16 514.8788 438.706)" class="st2" width="19.84" height="28.35"/>
			
				<rect x="28.16" y="515.5" transform="matrix(-1.836970e-16 1 -1 -1.836970e-16 567.7531 491.5829)" class="st2" width="19.84" height="28.35"/>
			
				<rect x="28.16" y="568.4" transform="matrix(-1.836970e-16 1 -1 -1.836970e-16 620.6533 544.483)" class="st2" width="19.84" height="28.35"/>
			
				<rect x="28.16" y="639.47" transform="matrix(-1.836970e-16 1 -1 -1.836970e-16 691.7291 615.5589)" class="st2" width="19.84" height="28.35"/>
			
				<rect x="76.38" y="712.25" transform="matrix(-1.836970e-16 1 -1 -1.836970e-16 811.3141 633.0368)" class="st2" width="25.51" height="19.84"/>
		</g>
	</g>
	<g id="サイドプレート右下_00000067230625900451866520000002651375874835604866_">
		<circle class="st2" cx="288.33" cy="820.63" r="2.83"/>
		<circle class="st2" cx="572.24" cy="820.63" r="2.83"/>
		<circle class="st2" cx="572.24" cy="673.67" r="2.83"/>
	</g>
	<g id="サイドプレート右下_00000054234522982924968530000008154078286874737315_">
		<circle class="st2" cx="265.66" cy="797.95" r="2.83"/>
		<circle class="st2" cx="549.56" cy="797.95" r="2.83"/>
		<circle class="st2" cx="549.56" cy="650.99" r="2.83"/>
	</g>
	<g id="サイドプレート左下_00000110464350549986060780000008583924340184894849_">
		<circle class="st2" cx="549.56" cy="156.28" r="2.83"/>
		<circle class="st2" cx="265.66" cy="45.78" r="2.83"/>
		<circle class="st2" cx="549.56" cy="45.78" r="2.83"/>
	</g>
	<g id="サイドプレート左下_00000012467543105410113090000000103428954856245634_">
		<circle class="st2" cx="572.24" cy="133.6" r="2.83"/>
		<circle class="st2" cx="288.33" cy="23.11" r="2.83"/>
		<circle class="st2" cx="572.24" cy="23.11" r="2.83"/>
	</g>
	<g id="サイドプレート左上_00000173132160754882659650000011345996659815845282_">
		<circle class="st2" cx="167.84" cy="77.25" r="2.83"/>
		<circle class="st2" cx="167.84" cy="132.3" r="2.83"/>
		<circle class="st2" cx="451.75" cy="77.25" r="2.83"/>
	</g>
	<g id="サイドプレート左上_00000181801634409854857390000018170540918360846212_">
		<circle class="st2" cx="38.95" cy="765.59" r="2.83"/>
		<circle class="st2" cx="38.95" cy="820.64" r="2.83"/>
		<circle class="st2" cx="322.86" cy="765.59" r="2.83"/>
	</g>
	<g id="サイドプレート右上_00000079483755080452991500000015860691169878883007_">
		<circle class="st2" cx="91.98" cy="270.21" r="2.83"/>
		<circle class="st2" cx="141.74" cy="270.21" r="2.83"/>
		<circle class="st2" cx="91.98" cy="554.12" r="2.83"/>
	</g>
	<g id="サイドプレート右上_00000156589060413279535050000010523271263162876303_">
		<circle class="st2" cx="206.94" cy="632.07" r="2.83"/>
		<circle class="st2" cx="157.18" cy="632.07" r="2.83"/>
		<circle class="st2" cx="206.94" cy="348.16" r="2.83"/>
	</g>
</g>
</svg>
